<svg xmlns="http://www.w3.org/2000/svg" xmlns:xlink="http://www.w3.org/1999/xlink" viewBox="0 0 1181.05 542.74"><defs><style>.cls-1{fill:url(#linear-gradient);}.cls-2{fill:#000f47;}.cls-3{fill:url(#linear-gradient-2);}.cls-4{fill:#4d555b;}.cls-5{fill:url(#linear-gradient-3);}.cls-6{fill:#4e555c;}.cls-7{fill:#3a3d3f;}</style><linearGradient id="linear-gradient" x1="621.43" y1="-1526.03" x2="942.45" y2="-1526.03" gradientTransform="translate(-227.84 1648.6)" gradientUnits="userSpaceOnUse"><stop offset="0" stop-color="#034ea2"/><stop offset="1" stop-color="#000f47"/></linearGradient><linearGradient id="linear-gradient-2" x1="0" y1="-606.63" x2="235.98" y2="-606.63" gradientTransform="translate(0 846)" xlink:href="#linear-gradient"/><linearGradient id="linear-gradient-3" x1="963.45" y1="-724.66" x2="1122.31" y2="-724.66" gradientTransform="translate(0 846)" xlink:href="#linear-gradient"/></defs><title>Asset 2</title><g id="Layer_2" data-name="Layer 2"><g id="Layer_1-2" data-name="Layer 1"><path class="cls-1" d="M570.89,42.5c-96.62,0-169.09,69.07-177.3,160.14h96.78c6.43-42,37.43-74.36,79.53-74.36,32.46,0,54.73,16,74.13,40l70.58-55.11C684.71,71.82,640.15,42.5,570.89,42.5Z"/><path class="cls-2" d="M646.44,269.75c-20.34,24.9-41.16,41.48-76.54,41.48-42,0-72.92-31.4-79.46-74.13h-97c7.76,93.57,82.38,160.39,174,160.39,74.59,0,117.7-32.65,149.65-77Z"/><polygon class="cls-3" points="0 390.24 0 390.24 98.68 390.24 113.89 352.04 235.98 352.04 207.17 281.78 141.8 281.78 173.97 200.81 127.91 88.5 0 390.24"/><path class="cls-4" d="M783.29,379.05,898.8,219.42,783.29,60.05h86.26L981.8,219.36,866.09,379ZM758.85,47.57,883.48,219.36,758.85,391.49H872.31L996.39,220.35l.68-.93L876,47.57Z"/><polygon class="cls-5" points="963.45 122.22 1015.58 195.04 1122.31 47.63 1017.28 47.63 963.45 122.22"/><polygon class="cls-2" points="234.54 48.4 144.91 48.4 144.84 48.4 144.87 48.47 144.52 49.27 190.11 160.17 190.4 159.46 240.6 281.78 240.15 281.78 269.02 352.04 269.41 352.04 285.06 390.24 383.77 390.24 243.55 48.4 234.54 48.4"/><path class="cls-6" d="M1181,23.67A24.31,24.31,0,1,1,1156.1,0h.69A23.8,23.8,0,0,1,1181,23.34Zm-42.56,0a18.33,18.33,0,0,0,17.77,18.89h.7a18.13,18.13,0,0,0,18-18.21v-.56a18.25,18.25,0,0,0-36.5-.17h0ZM1153,36.08h-5.49V12.41a48,48,0,0,1,9.11-.74,15.14,15.14,0,0,1,8.22,1.73,6.48,6.48,0,0,1,2.31,5.2,6.09,6.09,0,0,1-4.91,5.49v.29a7,7,0,0,1,4.33,5.77,18.57,18.57,0,0,0,1.73,5.93h-5.9a19.84,19.84,0,0,1-1.89-5.77c-.42-2.6-1.86-3.75-4.91-3.75H1153Zm.16-13.44h2.6c3,0,5.48-1,5.48-3.46s-1.6-3.59-5.06-3.59a12.56,12.56,0,0,0-3,.28Z"/><path class="cls-7" d="M49.6,508.65A42,42,0,0,0,32,501.27a68,68,0,0,1-9.63-2.57,21.65,21.65,0,0,1-5.71-3,8.74,8.74,0,0,1-2.79-3.49,11.81,11.81,0,0,1-.77-4.37,9.58,9.58,0,0,1,1-4.33A10,10,0,0,1,17,480a15.42,15.42,0,0,1,4.58-2.35,19.79,19.79,0,0,1,6.07-.89,30.32,30.32,0,0,1,10.29,1.79,35.05,35.05,0,0,1,9.63,5.78l.38.32,5.23-6.93-.35-.29A42.52,42.52,0,0,0,41.42,471a40.22,40.22,0,0,0-13.76-2.18,28.52,28.52,0,0,0-9.43,1.51,23.87,23.87,0,0,0-7.43,4.16,19,19,0,0,0-5,6.41,18.31,18.31,0,0,0-1.77,8,19.73,19.73,0,0,0,1.48,7.89A15.6,15.6,0,0,0,10,502.66a27.23,27.23,0,0,0,7.57,4.23,80.37,80.37,0,0,0,10.65,3.05,76.68,76.68,0,0,1,9.08,2.5,20.6,20.6,0,0,1,5.48,2.86,8.54,8.54,0,0,1,2.7,3.4,11.52,11.52,0,0,1,.77,4.3,10.26,10.26,0,0,1-4.11,8.44A17.78,17.78,0,0,1,31,534.64a31.88,31.88,0,0,1-12.83-2.4A42,42,0,0,1,7,524.82l-.39-.35-5.55,6.61.32.32A45.92,45.92,0,0,0,15,540a43.07,43.07,0,0,0,15.69,2.76,32.05,32.05,0,0,0,9.82-1.45,22.56,22.56,0,0,0,7.76-4.14,18.74,18.74,0,0,0,6.93-14.88A16.34,16.34,0,0,0,49.6,508.65Z"/><polygon class="cls-7" points="175.32 479.17 175.32 470.57 124.31 470.57 124.31 542.43 175.32 542.43 175.32 533.83 132.91 533.83 132.91 510.48 172.08 510.48 172.08 502.52 132.91 502.52 132.91 479.17 175.32 479.17"/><path class="cls-7" d="M429.2,511.7a23.29,23.29,0,0,1-5.52,16.87,20.17,20.17,0,0,1-15,5.61,19.86,19.86,0,0,1-15.3-5.9,24.38,24.38,0,0,1-5.49-17.06v-41.4h-8.82v41.71a38.33,38.33,0,0,0,2.12,13.18,26.13,26.13,0,0,0,6,9.63,25.55,25.55,0,0,0,9.33,5.87,36.82,36.82,0,0,0,23.94,0,24.81,24.81,0,0,0,9.34-5.94,26.7,26.7,0,0,0,6-9.81,40.6,40.6,0,0,0,2.12-13.57V469.82H429.2Z"/><rect class="cls-7" x="656.58" y="469.86" width="8.66" height="72.5"/><rect class="cls-7" x="864.03" y="469.86" width="8.66" height="72.5"/><path class="cls-7" d="M1119.39,508.52a42.51,42.51,0,0,0-17.61-7.38,68,68,0,0,1-9.63-2.56,22,22,0,0,1-5.74-3,8.89,8.89,0,0,1-2.76-3.49,11.81,11.81,0,0,1-.77-4.37,9.33,9.33,0,0,1,1-4.33,10.13,10.13,0,0,1,2.88-3.49,15.72,15.72,0,0,1,4.62-2.34,19.78,19.78,0,0,1,6.06-.9,30.21,30.21,0,0,1,10.27,1.79,34.71,34.71,0,0,1,9.82,5.78l.38.32,5.23-6.93-.39-.29a41.75,41.75,0,0,0-11.38-6.41,40.06,40.06,0,0,0-13.73-2.19,29.17,29.17,0,0,0-9.63,1.51,25,25,0,0,0-7.51,4.11,19,19,0,0,0-5,6.41,18.45,18.45,0,0,0-1.76,8,19.9,19.9,0,0,0,1.44,7.89,16.19,16.19,0,0,0,4.49,5.84,27.92,27.92,0,0,0,7.57,4.24,80.54,80.54,0,0,0,10.65,3.2,73.53,73.53,0,0,1,9.11,2.51,19.75,19.75,0,0,1,5.46,2.85,8.36,8.36,0,0,1,2.69,3.4,11.1,11.1,0,0,1,.77,4.3,10.25,10.25,0,0,1-4.07,8.44,17.91,17.91,0,0,1-11.16,3.21,32,32,0,0,1-12.84-2.44,42.12,42.12,0,0,1-11-7.38l-.35-.35-5.58,6.61.35.32a45.59,45.59,0,0,0,13.54,8.57,42.9,42.9,0,0,0,15.65,2.76,32.24,32.24,0,0,0,9.85-1.45,22.87,22.87,0,0,0,7.77-4.14,19,19,0,0,0,6.89-15A16.33,16.33,0,0,0,1119.39,508.52Z"/><polygon class="cls-7" points="957.8 542.33 1008.81 542.33 1008.81 533.73 966.4 533.73 966.4 510.38 1005.54 510.38 1005.54 502.43 966.4 502.43 966.4 479.07 1008.81 479.07 1008.81 470.47 957.8 470.47 957.8 542.33"/><polygon class="cls-7" points="735.3 478.97 758.72 478.97 758.72 542.56 767.38 542.56 767.38 478.97 790.8 478.97 790.8 470.31 735.3 470.31 735.3 478.97"/><path class="cls-7" d="M564.41,509.58a22.43,22.43,0,0,0,6.16-4.33,18.37,18.37,0,0,0,4-6.13,21.2,21.2,0,0,0,1.41-8,20.36,20.36,0,0,0-1.82-8.69,19.47,19.47,0,0,0-5.2-6.74,23.73,23.73,0,0,0-8.05-4.3,34.7,34.7,0,0,0-10.52-1.57h-30.5v72.54h8.78v-29h19.25l19.88,28.88v.19h10.81l-21.33-30.54A27.93,27.93,0,0,0,564.41,509.58Zm-2.08-7.86a16.89,16.89,0,0,1-5.55,2.76,24.38,24.38,0,0,1-7,1h-21v-27.4h21a20.68,20.68,0,0,1,12.83,3.56,11.78,11.78,0,0,1,4.49,9.85,12.49,12.49,0,0,1-4.88,10.23Z"/><path class="cls-7" d="M300,524.56l-.29.29a42.55,42.55,0,0,1-9.46,6.8,26.89,26.89,0,0,1-12.13,2.57A25.28,25.28,0,0,1,267.61,532a25.94,25.94,0,0,1-8.37-6,27.36,27.36,0,0,1-5.58-9,31.91,31.91,0,0,1,0-22.17,27.6,27.6,0,0,1,5.58-8.89,25.1,25.1,0,0,1,8.37-5.93,27.88,27.88,0,0,1,22.46.48,44.66,44.66,0,0,1,8.79,6.13l7-5.52-.29-.29a57.59,57.59,0,0,0-5.42-4.56,32.93,32.93,0,0,0-6.16-3.52,37.2,37.2,0,0,0-7.21-2.25,42.31,42.31,0,0,0-8.7-.8,36.11,36.11,0,0,0-14.28,2.91,34.74,34.74,0,0,0-11.26,7.83A37,37,0,0,0,245.13,492a39.17,39.17,0,0,0,0,28.39,34.55,34.55,0,0,0,32.69,22,38.56,38.56,0,0,0,8.76-.9,37.47,37.47,0,0,0,7.35-2.5,34.9,34.9,0,0,0,6.41-3.89,47,47,0,0,0,5.65-5l.35-.36Z"/></g></g></svg>